# xmcd
#
# Track frame offsets: 
#        150
#        21328
#        43041
#        59687
#        80574
#        99881
#        120411
#        155043
#        190643
#        222353
#        252407
#        281930
#        285439
#
# Disc length: 3823 seconds
#
# Revision: 0
# Processed by: cddbd v1.5.2PL0 Copyright (c) Steve Scherf et al.
# Submitted via: ExactAudioCopy v1.0b1
#
DISCID=bd0eed0d
DTITLE=Joan Chamorro featuring Scott Robinson - Baritone Rhapsody
DYEAR=2011
DGENRE=Jazz
TTITLE0=01. Love Me or Leave Me (Donaldson) 4:42
TTITLE1=02. Ephemera (Adams) 4:50
TTITLE2=03. Bossa Nouveau (Adams) 3:42
TTITLE3=04. Civilization and Its Discontents (Adams) 4:38
TTITLE4=05. Elevation (Mulligan) 4:17
TTITLE5=06. What's New (Haggart) 4:34
TTITLE6=07. Motel (Mulligan) 7:42
TTITLE7=08. Claudette's Way (Adams) 7:55
TTITLE8=09. Baritone Rhapsody (Chamorro) 7:03
TTITLE9=10. Sophisticated Lady (Ellington) 6:41
TTITLE10=11. Blues Peleón (Chamorro) 6:34
TTITLE11=12. Serge's Urge [final] (Chaloff) 0:47
TTITLE12=13. Two Tones [final] (Patrick-Davis) 0:18
EXTD=
EXTT0=
EXTT1=
EXTT2=
EXTT3=
EXTT4=
EXTT5=
EXTT6=
EXTT7=
EXTT8=
EXTT9=
EXTT10=
EXTT11=
EXTT12=
PLAYORDER=
